<svg width="25" height="24" viewBox="0 0 25 24" fill="none" xmlns="http://www.w3.org/2000/svg">
<g clip-path="url(#clip0_9_18)">
<path d="M0.333313 12C0.333313 8.8174 1.5976 5.76516 3.84803 3.51472C6.09847 1.26428 9.15071 0 12.3333 0C15.5159 0 18.5682 1.26428 20.8186 3.51472C23.069 5.76516 24.3333 8.8174 24.3333 12C24.3333 15.1826 23.069 18.2348 20.8186 20.4853C18.5682 22.7357 15.5159 24 12.3333 24C9.15071 24 6.09847 22.7357 3.84803 20.4853C1.5976 18.2348 0.333313 15.1826 0.333313 12ZM15.3333 16.5C15.3333 15.2391 14.5599 14.1609 13.4583 13.7203V4.125C13.4583 3.50156 12.9568 3 12.3333 3C11.7099 3 11.2083 3.50156 11.2083 4.125V13.7203C10.1068 14.1656 9.33331 15.2437 9.33331 16.5C9.33331 18.1547 10.6786 19.5 12.3333 19.5C13.988 19.5 15.3333 18.1547 15.3333 16.5ZM7.08331 8.25C7.48114 8.25 7.86267 8.09196 8.14397 7.81066C8.42528 7.52936 8.58331 7.14782 8.58331 6.75C8.58331 6.35218 8.42528 5.97064 8.14397 5.68934C7.86267 5.40804 7.48114 5.25 7.08331 5.25C6.68549 5.25 6.30396 5.40804 6.02265 5.68934C5.74135 5.97064 5.58331 6.35218 5.58331 6.75C5.58331 7.14782 5.74135 7.52936 6.02265 7.81066C6.30396 8.09196 6.68549 8.25 7.08331 8.25ZM6.33331 12C6.33331 11.6022 6.17528 11.2206 5.89397 10.9393C5.61267 10.658 5.23114 10.5 4.83331 10.5C4.43549 10.5 4.05396 10.658 3.77265 10.9393C3.49135 11.2206 3.33331 11.6022 3.33331 12C3.33331 12.3978 3.49135 12.7794 3.77265 13.0607C4.05396 13.342 4.43549 13.5 4.83331 13.5C5.23114 13.5 5.61267 13.342 5.89397 13.0607C6.17528 12.7794 6.33331 12.3978 6.33331 12ZM19.8333 13.5C20.2311 13.5 20.6127 13.342 20.894 13.0607C21.1753 12.7794 21.3333 12.3978 21.3333 12C21.3333 11.6022 21.1753 11.2206 20.894 10.9393C20.6127 10.658 20.2311 10.5 19.8333 10.5C19.4355 10.5 19.054 10.658 18.7727 10.9393C18.4913 11.2206 18.3333 11.6022 18.3333 12C18.3333 12.3978 18.4913 12.7794 18.7727 13.0607C19.054 13.342 19.4355 13.5 19.8333 13.5ZM19.0833 6.75C19.0833 6.35218 18.9253 5.97064 18.644 5.68934C18.3627 5.40804 17.9811 5.25 17.5833 5.25C17.1855 5.25 16.804 5.40804 16.5227 5.68934C16.2413 5.97064 16.0833 6.35218 16.0833 6.75C16.0833 7.14782 16.2413 7.52936 16.5227 7.81066C16.804 8.09196 17.1855 8.25 17.5833 8.25C17.9811 8.25 18.3627 8.09196 18.644 7.81066C18.9253 7.52936 19.0833 7.14782 19.0833 6.75Z" fill="white"/>
</g>
<defs>
<clipPath id="clip0_9_18">
<rect width="24" height="24" fill="white" transform="translate(0.333313)"/>
</clipPath>
</defs>
</svg>
