<svg width="24" height="24" viewBox="0 0 24 24" fill="none" xmlns="http://www.w3.org/2000/svg">
<path fill-rule="evenodd" clip-rule="evenodd" d="M16.9618 10.8001H16.9798C14.9799 7.18017 10.5719 -0.0477616 8.93991 0.000237883C7.30793 0.0482374 2.97997 7.22017 1.01999 10.8001H1.03804C0.375274 12.054 0 13.4832 0 15.0001C0 19.9706 4.0294 24 8.99991 24C13.9704 24 17.9998 19.9706 17.9998 15.0001C17.9998 13.4832 17.6246 12.054 16.9618 10.8001Z" fill="#00C598"/>
<path d="M23.8797 5.28021C23.8797 7.33468 22.2143 9.00017 20.1598 9.00017C18.1053 9.00017 16.4398 7.33468 16.4398 5.28021C16.4398 3.22573 18.1053 1.56024 20.1598 1.56024C22.2143 1.56024 23.8797 3.22573 23.8797 5.28021ZM18.623 5.28021C18.623 6.12893 19.3111 6.81696 20.1598 6.81696C21.0085 6.81696 21.6965 6.12893 21.6965 5.28021C21.6965 4.43148 21.0085 3.74345 20.1598 3.74345C19.3111 3.74345 18.623 4.43148 18.623 5.28021Z" fill="#00C598"/>
</svg>
