<svg width="24" height="24" viewBox="0 0 24 24" fill="none" xmlns="http://www.w3.org/2000/svg">
<path d="M0.19863 21.459L10.3626 1.13104C10.7747 0.306934 11.7361 -0.379822 12.9036 0.238258C13.8376 0.732722 13.7048 1.86358 13.5217 2.3672L4.52519 20.3602C4.41531 20.58 4.57098 20.6349 4.66254 20.6349H22.7242C23.1363 20.818 23.9604 21.4178 23.9604 22.3518C23.9604 23.2858 23.1363 23.8398 22.7242 24H2.19022C-0.282099 24 -0.16764 22.306 0.19863 21.459Z" fill="#165DFF"/>
<path d="M17.2302 18.918C16.6258 14.7425 13.3157 11.3179 11.7361 10.1275L12.835 7.79256C17.5049 10.9791 19.4049 16.5372 19.7712 18.918H17.2302Z" fill="#165DFF"/>
</svg>
