<svg width="24" height="22" viewBox="0 0 24 22" fill="none" xmlns="http://www.w3.org/2000/svg">
<path d="M10.6667 1.33331H7.55C6.42083 1.33331 5.4125 2.04581 5.0375 3.10831L0.129167 16.9666C0.0458333 17.2083 0 17.4666 0 17.725C0 18.9791 1.02083 20 2.275 20H10.6667V17.3333C10.6667 16.5958 11.2625 16 12 16C12.7375 16 13.3333 16.5958 13.3333 17.3333V20H21.725C22.9833 20 24 18.9791 24 17.725C24 17.4666 23.9542 17.2083 23.8708 16.9666L18.9625 3.10831C18.5833 2.04581 17.5792 1.33331 16.45 1.33331H13.3333V3.99998C13.3333 4.73748 12.7375 5.33331 12 5.33331C11.2625 5.33331 10.6667 4.73748 10.6667 3.99998V1.33331ZM13.3333 9.33331V12C13.3333 12.7375 12.7375 13.3333 12 13.3333C11.2625 13.3333 10.6667 12.7375 10.6667 12V9.33331C10.6667 8.59581 11.2625 7.99998 12 7.99998C12.7375 7.99998 13.3333 8.59581 13.3333 9.33331Z" fill="black"/>
</svg>
