<svg width="13" height="24" viewBox="0 0 13 24" fill="none" xmlns="http://www.w3.org/2000/svg">
<g clip-path="url(#clip0_9_13)">
<path d="M0.666656 2.25C0.666656 1.00781 1.67447 0 2.91666 0H10.4167C11.6588 0 12.6667 1.00781 12.6667 2.25V4.5H8.91666C8.50416 4.5 8.16666 4.8375 8.16666 5.25C8.16666 5.6625 8.50416 6 8.91666 6H12.6667V9H8.91666C8.50416 9 8.16666 9.3375 8.16666 9.75C8.16666 10.1625 8.50416 10.5 8.91666 10.5H12.6667V13.5H8.91666C8.50416 13.5 8.16666 13.8375 8.16666 14.25C8.16666 14.6625 8.50416 15 8.91666 15H12.6667V18H8.91666C8.50416 18 8.16666 18.3375 8.16666 18.75C8.16666 19.1625 8.50416 19.5 8.91666 19.5H12.6667V21.75C12.6667 22.9922 11.6588 24 10.4167 24H2.91666C1.67447 24 0.666656 22.9922 0.666656 21.75V2.25Z" fill="white"/>
</g>
<defs>
<clipPath id="clip0_9_13">
<rect width="12" height="24" fill="white" transform="translate(0.666656)"/>
</clipPath>
</defs>
</svg>
