<svg width="24" height="28" viewBox="0 0 24 28" fill="none" xmlns="http://www.w3.org/2000/svg">
<g clip-path="url(#clip0_8_2)">
<path d="M9.42858 0C8.48036 0 7.71429 0.766071 7.71429 1.71429C7.71429 2.6625 8.48036 3.42857 9.42858 3.42857H10.2857V5.27143C4.94465 6.09643 0.857147 10.7143 0.857147 16.2857C0.857147 22.4411 5.84465 27.4286 12 27.4286C18.1554 27.4286 23.1429 22.4411 23.1429 16.2857C23.1429 14.0464 22.4839 11.9625 21.3482 10.2214L22.6393 8.93036C23.3089 8.26071 23.3089 7.17321 22.6393 6.50357C21.9696 5.83393 20.8821 5.83393 20.2125 6.50357L19.0554 7.66071C17.55 6.42857 15.7232 5.58214 13.7143 5.27143V3.42857H14.5714C15.5196 3.42857 16.2857 2.6625 16.2857 1.71429C16.2857 0.766071 15.5196 0 14.5714 0H12H9.42858ZM13.2857 10.2857V17.1429C13.2857 17.8554 12.7125 18.4286 12 18.4286C11.2875 18.4286 10.7143 17.8554 10.7143 17.1429V10.2857C10.7143 9.57321 11.2875 9 12 9C12.7125 9 13.2857 9.57321 13.2857 10.2857Z" fill="white"/>
</g>
<defs>
<clipPath id="clip0_8_2">
<rect width="24" height="27.4286" fill="white"/>
</clipPath>
</defs>
</svg>
