<svg width="15" height="24" viewBox="0 0 15 24" fill="none" xmlns="http://www.w3.org/2000/svg">
<g clip-path="url(#clip0_9_1899)">
<path d="M7.5 3C6.25781 3 5.25 4.00781 5.25 5.25V12.9609C5.25 13.7719 4.91719 14.4563 4.53281 14.9531C4.04062 15.5906 3.75 16.3828 3.75 17.25C3.75 19.3219 5.42812 21 7.5 21C9.57187 21 11.25 19.3219 11.25 17.25C11.25 16.3828 10.9594 15.5906 10.4672 14.9578C10.0828 14.4609 9.75 13.7766 9.75 12.9656V5.25C9.75 4.00781 8.74219 3 7.5 3ZM2.25 5.25C2.25 2.35313 4.59844 0 7.5 0C10.4016 0 12.75 2.34844 12.75 5.25V12.9609C12.75 12.9656 12.7547 12.975 12.7594 12.9891C12.7688 13.0172 12.7969 13.0641 12.8391 13.1203C13.725 14.2641 14.25 15.6984 14.25 17.25C14.25 20.9766 11.2266 24 7.5 24C3.77344 24 0.75 20.9766 0.75 17.25C0.75 15.6938 1.275 14.2594 2.16094 13.1203C2.20312 13.0641 2.23125 13.0172 2.24062 12.9891C2.24531 12.975 2.25 12.9656 2.25 12.9609V5.25ZM9.75 17.25C9.75 18.4922 8.74219 19.5 7.5 19.5C6.25781 19.5 5.25 18.4922 5.25 17.25C5.25 16.2703 5.87813 15.4359 6.75 15.1266V6.75C6.75 6.3375 7.0875 6 7.5 6C7.9125 6 8.25 6.3375 8.25 6.75V15.1266C9.12187 15.4359 9.75 16.2703 9.75 17.25Z" fill="#F87A53"/>
</g>
<defs>
<clipPath id="clip0_9_1899">
<rect width="15" height="24" fill="white"/>
</clipPath>
</defs>
</svg>
